<svg width="87" height="69" viewBox="0 0 87 69" fill="none" xmlns="http://www.w3.org/2000/svg">
<path d="M37.2953 0.599991L24.0953 48.6L19.6953 30.6C25.4286 30.6 30.0953 32.2667 33.6953 35.6C37.2953 38.9333 39.0953 43.5333 39.0953 49.4C39.0953 55.1333 37.2286 59.8 33.4953 63.4C29.8953 66.8667 25.362 68.6 19.8953 68.6C14.2953 68.6 9.62865 66.8667 5.89531 63.4C2.29531 59.8 0.495313 55.1333 0.495313 49.4C0.495313 47.6667 0.628646 46 0.895313 44.4C1.16198 42.6667 1.69531 40.6667 2.49531 38.4C3.29531 36.1333 4.42865 33.1333 5.89531 29.4L17.4953 0.599991H37.2953ZM84.4953 0.599991L71.2953 48.6L66.8953 30.6C72.6286 30.6 77.2953 32.2667 80.8953 35.6C84.4953 38.9333 86.2953 43.5333 86.2953 49.4C86.2953 55.1333 84.4287 59.8 80.6953 63.4C77.0953 66.8667 72.562 68.6 67.0953 68.6C61.4953 68.6 56.8286 66.8667 53.0953 63.4C49.4953 59.8 47.6953 55.1333 47.6953 49.4C47.6953 47.6667 47.8286 46 48.0953 44.4C48.362 42.6667 48.8953 40.6667 49.6953 38.4C50.4953 36.1333 51.6286 33.1333 53.0953 29.4L64.6953 0.599991H84.4953Z" fill="#D23244" fill-opacity="0.1"/>
</svg>
